<?xml version="1.0" encoding="UTF-8"?>
<svg id="Camada_1" data-name="Camada 1" xmlns="http://www.w3.org/2000/svg" viewBox="0 0 30 30">
  <defs>
    <style>
      .cls-1 {
        fill: #fafafa;
      }
    </style>
  </defs>
  <path class="cls-1" d="M8.59,1.93h12.7c3.64.21,6.61,3.24,6.79,6.88v12.33c-.17,3.73-3.16,6.74-6.88,6.95h-12.33c-3.64-.14-6.69-3.09-6.95-6.73v-12.7c.24-3.53,3.15-6.46,6.67-6.72ZM23.68,4.81c-1.95.05-1.82,3.08.18,2.91,1.81-.15,1.68-2.95-.18-2.91ZM9.77,9.93c-4.41,4.64-1.24,12.23,5.15,12.31,5.71.07,9.27-6.2,6.25-11.08-2.47-3.98-8.15-4.65-11.4-1.23Z"/>
  <path class="cls-1" d="M11.84,11.97c2.33-2.43,6.47-1.38,7.36,1.86.93,3.41-2.32,6.44-5.66,5.28-2.97-1.03-3.88-4.87-1.7-7.14Z"/>
</svg>